<svg fill="none" height="46" viewBox="0 0 100 46" width="100" xmlns="http://www.w3.org/2000/svg"><g fill="#ed591b"><path clip-rule="evenodd" d="m92.6296.607413h6.6266c.6482 0 .9258.531007.6189 1.185637l-7.8392 16.72385-.0298-.0061c-2.174 4.9703-3.9711 7.4-9.2616 7.4h-6.4722c-.6482 0-1.1744-.5307-1.1744-1.1852l.0009-13.5998-3.4645 7.3911-.0302-.0061c-2.1736 4.9703-3.9711 7.4-9.2612 7.4h-6.0042c-.6487 0-1.1749-.5307-1.1749-1.1852v-7.6935c-1.6103 5.4843-6.6384 9.4864-12.5951 9.4864-6.0402 0-11.1248-4.1147-12.6605-9.7172v7.9243c0 .6545-.5259 1.1852-1.1744 1.1852h-6.4442c-6.0969 0-7.5543-3.2265-10.2952-9.8496-2.30434-5.5683-2.9231-6.28929-3.70902-6.97311l.00068 15.63751c0 .6545-.52573 1.1852-1.1744 1.1852h-5.93712c-.648665 0-1.17454-.5307-1.17454-1.1852v-22.93255c0-.65463.525875-1.185637 1.17454-1.185637h4.22857c8.47149 0 9.88509 2.924037 12.78879 9.849787 1.4298 3.4103 2.602 5.8149 3.4302 6.9258v-15.58995c0-.65463.5259-1.185637 1.1744-1.185637h5.9373c.6485 0 1.1744.531007 1.1744 1.185637v7.92422c1.5357-5.60262 6.6203-9.71727 12.6605-9.71727 5.9567 0 10.9848 4.00214 12.5951 9.48636v-7.69331c0-.65463.5262-1.185637 1.1749-1.185637h5.937c.6487 0 1.1744.531007 1.1744 1.185637v15.48965c.504-1.1494 1.6444-3.7502 2.9907-6.8255.364-.83175.6914-1.59448.9916-2.29375 2.8453-6.62942 3.2431-7.556037 9.2789-7.556037h5.4985c.6487 0 1.1744.531007 1.1744 1.185637v15.62605c.8294-1.0938 2.0119-3.5128 3.4581-6.9619v-.0083l4.0574-8.65585c.3067-.65463 1.0813-1.185637 1.7299-1.185637zm-54.8811 12.651787c0 2.6868 2.1579 4.8645 4.8202 4.8645 2.6619 0 4.8201-2.1777 4.8201-4.8645 0-2.6866-2.1582-4.86446-4.8201-4.86446-2.6623 0-4.8202 2.17786-4.8202 4.86446z" fill-rule="evenodd"/><path d="m74.5331 32.0252c-1.3939 0-2.5492.501-3.3799 1.3488-1.2892 1.3105-1.3841 2.4764-1.3841 5.6269 0 3.1508.0949 4.3168 1.3841 5.6269.8307.8479 1.986 1.3492 3.3799 1.3492 1.7567 0 2.8736-.6937 3.6469-1.6475.573-.6942.8686-1.5515.8686-1.9947 0-.241-.057-.4046-.1906-.5396-.1335-.1348-.3058-.1927-.487-.1927-.191 0-.3437.0579-.4487.1543-.1527.1348-.2578.3563-.3437.6166-.4866 1.4548-1.547 2.293-3.0549 2.293-.917 0-1.7091-.3369-2.3296-.9826-.869-.8961-.955-1.9079-.955-4.6829 0-2.7748.086-3.7866.955-4.6825.6205-.6456 1.4126-.9828 2.3296-.9828 1.5079 0 2.5683.8383 3.0549 2.2931.0859.2602.191.4817.3437.6166.105.0965.2577.1542.4487.1542.1812 0 .3535-.0577.487-.1927.1336-.1348.1906-.2986.1906-.5396 0-.4431-.2956-1.3007-.8686-1.9944-.7733-.9539-1.8902-1.6476-3.6469-1.6476z"/><path d="m15.6614 45.6301c.1141-.1833.1332-.3082.1332-.6935v-11.8708c0-.3853-.0191-.5107-.1332-.6937-.1147-.1831-.3345-.3083-.6015-.3083-.2675 0-.4873.1252-.6015.3083-.1146.183-.1337.3084-.1337.6937v11.8708c0 .3853.0191.5102.1337.6935.1142.1829.334.3084.6015.3084.267 0 .4868-.1255.6015-.3084z"/><path d="m6.5786 38.5h-5.10804v-5.0489h6.13901c.36308 0 .48715-.0288.63007-.1155.17197-.1157.27712-.3084.27712-.5396s-.10515-.4239-.27712-.5396c-.14292-.0867-.26699-.1155-.63007-.1155h-6.721374c-.228792 0-.486828 0-.687374.2022-.20021444.2023-.20021444.4624-.20021444.6937v11.8997c0 .3853.01910764.5103.13375344.6935.114147.183.333966.3084.601474.3084.267005 0 .486825-.1254.601475-.3084.11414-.1832.13325-.3082.13325-.6935v-5.1262h5.10804c.36257 0 .48681-.0288.63007-.1156.17197-.1156.27712-.3083.27712-.5395 0-.2313-.10515-.4239-.27712-.5396-.14326-.0867-.2675-.1156-.63007-.1156z"/><path d="m32.2754 44.9652c0 .3567-.0668.5782-.2288.7419-.1434.1445-.3344.2314-.5538.2314-.3534 0-.5823-.2122-.8307-.5878l-6.9793-10.406v9.9919c0 .3853-.0191.5102-.1333.6935-.1146.1829-.3344.3084-.6014.3084-.2675 0-.4873-.1255-.6015-.3084-.1146-.1833-.1337-.3082-.1337-.6935v-11.8998c0-.3563.0667-.578.2288-.7418.1337-.1446.3344-.2312.5541-.2312.3531 0 .5729.2119.8304.5877l6.9792 10.406v-9.9917c0-.3853.0192-.5107.1333-.6937.1147-.1831.3345-.3083.602-.3083.267 0 .4868.1252.6014.3083.1142.183.1333.3084.1333.6937z"/><path clip-rule="evenodd" d="m42.59 32.3045c-.1046.1253-.181.2506-.286.5299l-4.4111 11.89c-.1337.3663-.2292.7031.0574.9926.1337.1346.3245.2215.5347.2215.1432 0 .2675-.0482.3721-.1255.1529-.1252.2197-.2309.3535-.5877l.8972-2.4666h6.0436l.8975 2.4666c.1336.3568.2004.4625.3531.5877.105.0773.2292.1255.3726.1255.2101 0 .4007-.0869.5347-.2215.2866-.2895.2003-.6263.0667-.9926l-4.4109-11.89c-.105-.2889-.1816-.4046-.2862-.5299-.1336-.1445-.3058-.2407-.5445-.2407-.2386 0-.4104.0962-.5444.2407zm3.1029 9.1823h-5.1265l2.568-7.0624z" fill-rule="evenodd"/><path d="m63.8648 44.9652c0 .3567-.0668.5782-.2288.7419-.1434.1445-.3344.2314-.5538.2314-.3535 0-.5824-.2122-.8308-.5878l-6.9791-10.406v9.9919c0 .3853-.0192.5102-.1336.6935-.1144.1829-.3343.3084-.6014.3084-.2676 0-.4871-.1255-.6015-.3084-.1144-.1833-.1335-.3082-.1335-.6935v-11.8998c0-.3563.0667-.578.2288-.7418.1336-.1446.3343-.2312.5538-.2312.3535 0 .573.2119.8307.5877l6.9792 10.406v-9.9917c0-.3853.0191-.5107.1335-.6937.1145-.1831.3344-.3083.6015-.3083s.487.1252.6019.3083c.114.183.1331.3084.1331.6937z"/><path d="m92.9435 32.1409c.3633 0 .4875.0288.6304.1155.1718.1157.2769.3084.2769.5396s-.1051.4239-.2769.5396c-.1429.0867-.2671.1155-.6304.1155h-6.1387v4.837h5.0983c.3628 0 .4866.0289.63.1155.1722.1158.2773.3084.2773.5397 0 .2312-.1051.4239-.2773.5396-.1434.0866-.2672.1155-.63.1155h-5.0983v4.9526h6.1387c.3633 0 .4875.0287.6304.1154.1718.1159.2769.3082.2769.5396s-.1051.4241-.2769.5396c-.1429.0867-.2671.1155-.6304.1155h-6.7214c-.2288 0-.4866 0-.6873-.2022-.2-.2022-.2-.4623-.2-.6937v-11.9284c0-.2312 0-.4913.2-.6937.2007-.2022.4585-.2022.6873-.2022z"/></g></svg>
