<svg id="Logo" xmlns="http://www.w3.org/2000/svg" viewBox="0 0 42.52 12.63"><defs><style>.cls-1{fill:#002a61;}</style></defs><path class="cls-1" d="M16.78,7.2c.11-1.19.6-1.72,1.37-1.72s1.26.59,1.3,1.72ZM4.19,4.11C5.45,4.11,6,4.64,6,5.65S5.45,7.18,4.22,7.18H3.11V4.11Zm38.07-.49h-3.1v8.74h3.1ZM22.12,9.78,19.4,9c-.17.73-.53,1.28-1.28,1.28s-1.32-.57-1.38-2.05h5.63V7.79c0-2.56-1.2-4.44-4.2-4.44s-4.41,1.77-4.41,4.77,1.65,4.51,4.34,4.51c2.41,0,3.6-1.17,4-2.85m4.13-2c0-1,.44-1.61,1.21-1.61.58,0,.91.4.91,1.1v5.08h3.11v-6c0-1.9-.82-3-2.29-3-1.28,0-2.26.84-2.79,2.63h-.28V3.62h-3v8.74h3.11Zm-21.63,2A4.15,4.15,0,0,0,9.09,5.61c0-2.74-1.52-4.22-4.59-4.22H0v11H3.11V9.78Zm28.61-.26a2.82,2.82,0,0,0,3.07,3.11,5.79,5.79,0,0,0,2-.35V9.49a2.4,2.4,0,0,1-1.11.29c-.66,0-.88-.33-.88-1V6h2V3.62h-2V1.22l-3.11.48V3.62H32.12V6h1.11ZM13,.57,9.87,1V12.36H13Zm27.73,2.5c1.1,0,1.81-.62,1.81-1.53S41.81,0,40.71,0,38.9.62,38.9,1.54s.71,1.53,1.81,1.53"/></svg>