<?xml version="1.0" encoding="utf-8"?>
<!-- Generator: Adobe Illustrator 17.0.0, SVG Export Plug-In . SVG Version: 6.00 Build 0)  -->
<!DOCTYPE svg PUBLIC "-//W3C//DTD SVG 1.1//EN" "http://www.w3.org/Graphics/SVG/1.1/DTD/svg11.dtd">
<svg version="1.1" id="Layer_1" xmlns="http://www.w3.org/2000/svg" xmlns:xlink="http://www.w3.org/1999/xlink" x="0px" y="0px"
	 width="271.301px" height="49.137px" viewBox="0 0 271.301 49.137" enable-background="new 0 0 271.301 49.137"
	 xml:space="preserve">
<g>
	<g>
		<path fill-rule="evenodd" clip-rule="evenodd" fill="#3F5588" d="M111.998,39.737c0-7.829,0-15.659,0-23.547
			c1.352,0,2.59,0,3.947,0c0.031,0.648,0.061,1.29,0.084,1.757c1.037-0.598,2.064-1.495,3.25-1.819
			c5.648-1.544,10.857,2.755,10.691,8.705c-0.16,5.827-4.967,9.731-10.465,8.498c-1.379-0.309-2.521-0.985-3.531-2.188
			c0,2.865,0,5.73,0,8.594C114.648,39.737,113.324,39.737,111.998,39.737z M125.957,24.697c0.008-2.996-2.189-5.277-5.057-5.25
			c-2.926,0.028-5.15,2.271-5.154,5.201c-0.006,3.013,2.191,5.21,5.215,5.218C123.83,29.872,125.947,27.683,125.957,24.697z"/>
		<path fill-rule="evenodd" clip-rule="evenodd" fill="#3F5588" d="M77.971,16.095c1.281,0,2.561,0,3.943,0c0,0.791,0,1.468,0,2.146
			c1.691-2.015,3.799-2.639,6.344-2.302c0,1.288,0,2.549,0,3.852c-0.297-0.038-0.551-0.079-0.803-0.1
			c-3.5-0.304-5.441,1.466-5.457,4.973c-0.012,2.72-0.016,5.438-0.027,8.157c0,0.066-0.047,0.132-0.109,0.288
			c-1.273,0-2.58,0-3.891,0C77.971,27.438,77.971,21.768,77.971,16.095z"/>
		<path fill-rule="evenodd" clip-rule="evenodd" fill="#3F5588" d="M271.301,25.154c-0.426,0.066-0.85,0.19-1.275,0.191
			c-4.01,0.015-8.022,0.008-12.031,0.008c-0.396,0-0.795,0-1.174,0c-0.26,2.403,1.131,4.925,3.293,6.102
			c2.742,1.489,5.818,0.961,8.898-1.586c0.322,0.301,0.656,0.611,1.092,1.018c-0.467,0.433-0.853,0.868-1.314,1.201
			c-2.996,2.15-6.236,2.401-9.455,0.743c-3.267-1.682-4.416-4.729-4.285-8.22c0.139-3.636,1.658-6.559,5.185-8.023
			c4.803-1.991,9.912,0.921,10.854,6.096c0.045,0.239,0.141,0.469,0.213,0.701C271.301,23.976,271.301,24.566,271.301,25.154z
			 M269.447,23.771c0.051-3.502-2.82-6.274-6.293-6.179c-3.527,0.094-6.486,2.969-6.305,6.179
			C261.017,23.771,265.189,23.771,269.447,23.771z"/>
		<path fill-rule="evenodd" clip-rule="evenodd" fill="#3F5588" d="M154.115,9.706c1.434,0,2.672,0,4.07,0c0,0.413,0,0.801,0,1.189
			c0,5.663-0.004,11.326,0,16.992c0.002,1.79,0.24,2.06,2.025,2.209c0,1.032,0,2.074,0,3.112c-3.047,0.919-4.916-0.085-5.705-2.149
			c-1.834,2.236-4.275,2.751-6.943,2.45c-2.213-0.253-4.023-1.316-5.426-3.056c-2.998-3.713-2.445-9.548,1.078-12.674
			c2.629-2.332,8.281-3.027,10.9,0.586C154.115,15.415,154.115,12.623,154.115,9.706z M154.426,24.7
			c0.006-2.95-2.182-5.203-5.101-5.253c-2.879-0.049-5.106,2.219-5.115,5.2c-0.006,2.997,2.07,5.186,4.951,5.214
			C152.176,29.893,154.418,27.694,154.426,24.7z"/>
		<path fill-rule="evenodd" clip-rule="evenodd" fill="#3F5588" d="M109.543,30.145c0,0.854,0.061,1.732-0.037,2.597
			c-0.029,0.263-0.465,0.655-0.746,0.688c-2.236,0.247-3.768,0.208-5.041-2.277c-3.164,3.683-9.236,2.847-11.992-0.248
			c-3.287-3.691-2.996-9.688,0.633-13.038c2.682-2.475,8.43-3.079,10.975,0.476c0-0.771,0-1.403,0-2.123c1.365,0,2.627,0,4.014,0
			c0.018,0.38,0.055,0.768,0.057,1.156c0.002,3.458,0,6.917,0.002,10.376C107.406,29.664,107.586,29.872,109.543,30.145z
			 M103.646,24.726c0.018-2.951-2.15-5.212-5.064-5.276c-2.877-0.065-5.137,2.204-5.152,5.172c-0.016,3.032,2.121,5.25,5.045,5.24
			C101.451,29.854,103.629,27.69,103.646,24.726z"/>
		<path fill-rule="evenodd" clip-rule="evenodd" fill="#3F5588" d="M212.678,30.273c-3.463,5.078-9.875,4.017-12.621,1.339
			c-3.623-3.534-3.645-9.728-0.045-13.306c2.791-2.774,9.193-3.734,12.666,1.299c0-1.142,0-2.106,0-3.131c0.59,0,1.047,0,1.65,0
			c0,0.441,0,0.831,0,1.223c0,4.083-0.004,8.168,0.002,12.253c0.004,2.051,0.322,2.375,2.305,2.399
			c0.148,1.296,0.045,1.424-1.182,1.426c-1.477,0.004-2.24-0.619-2.596-2.161C212.768,31.225,212.748,30.818,212.678,30.273z
			 M212.799,25.85c0.016-3.378-0.926-5.513-2.609-6.814c-2.975-2.298-7.344-1.815-9.578,1.061
			c-2.516,3.239-2.037,8.401,1.035,10.729c2.287,1.735,4.805,1.971,7.359,0.726C211.703,30.233,212.752,27.861,212.799,25.85z"/>
		<path fill-rule="evenodd" clip-rule="evenodd" fill="#3F5588" d="M179.545,16.488c0.504,0,0.998,0,1.57,0c0,0.917,0,1.786,0,2.729
			c0.186-0.066,0.324-0.072,0.354-0.131c1.297-2.748,4.949-3.454,7.705-2.62c2.658,0.804,4.26,3.146,4.322,6.371
			c0.045,2.354,0.008,4.711,0.016,7.065c0.002,1.867,0.092,1.965,1.904,2.21c0.188,1.356-0.035,1.6-1.328,1.413
			c-1.1-0.16-1.812-0.802-2.078-1.863c-0.148-0.598-0.209-1.231-0.217-1.853c-0.027-2.354,0.01-4.709-0.031-7.064
			c-0.041-2.434-1.57-4.38-3.734-4.859c-2.533-0.56-4.949,0.411-5.969,2.629c-0.506,1.101-0.809,2.38-0.854,3.593
			c-0.119,3.048-0.039,6.104-0.039,9.258c-0.549,0-1.041,0-1.621,0C179.545,27.774,179.545,22.174,179.545,16.488z"/>
		<path fill-rule="evenodd" clip-rule="evenodd" fill="#3F5588" d="M221.15,33.407c-0.639,0-1.104,0-1.639,0
			c0-5.639,0-11.217,0-16.896c0.498,0,1.018,0,1.625,0c0,0.917,0,1.783,0,2.919c0.262-0.326,0.371-0.441,0.459-0.573
			c1.494-2.294,3.887-3.145,7.084-2.522c2.252,0.44,4.145,2.315,4.561,4.699c0.209,1.187,0.217,2.415,0.244,3.623
			c0.037,1.805,0.002,3.608,0.014,5.412c0.01,1.705,0.17,1.864,1.865,1.999c0.291,1.368,0.018,1.675-1.34,1.454
			c-1.045-0.17-1.744-0.786-2.014-1.795c-0.16-0.597-0.225-1.233-0.23-1.851c-0.031-2.355,0.006-4.713-0.025-7.067
			c-0.037-2.451-1.52-4.392-3.682-4.906c-2.596-0.618-5.049,0.413-6.104,2.753c-0.457,1.012-0.732,2.176-0.777,3.282
			c-0.109,2.72-0.037,5.446-0.041,8.171C221.15,32.504,221.15,32.903,221.15,33.407z"/>
		<path fill-rule="evenodd" clip-rule="evenodd" fill="#3F5588" d="M132.824,16.199c1.398,0,2.668,0,4.113,0
			c0,0.403,0,0.787,0,1.175c0,3.567-0.004,7.134,0.004,10.7c0,1.594,0.137,1.734,1.781,1.921c0,1.046,0,2.1,0,3.153
			c-2.811,1.114-5.738-0.075-5.795-3.134c-0.068-3.601-0.074-7.203-0.104-10.804C132.816,18.229,132.824,17.247,132.824,16.199z"/>
		<path fill-rule="evenodd" clip-rule="evenodd" fill="#3F5588" d="M252.713,18.768c-0.363,0.335-0.68,0.624-0.99,0.909
			c-4.268-3.501-8.939-2.092-11.047,0.391c-2.309,2.725-2.211,7.286,0.191,9.937c2.25,2.484,6.994,3.464,10.846,0.156
			c0.309,0.327,0.619,0.658,0.924,0.986c-2.766,3.44-8.922,3.629-12.465,0.441c-3.723-3.35-3.854-9.511-0.281-13.042
			C243.369,15.109,249.525,15.144,252.713,18.768z"/>
		<path fill-rule="evenodd" clip-rule="evenodd" fill="#3F5588" d="M165.748,16.405c1.197,0,2.033-0.003,2.867,0.002
			c1.311,0.005,1.377,0.103,1.012,1.615c-0.551,0-1.131,0-1.709,0c-0.588,0-1.168,0-1.883,0c0,5.142,0,10.201,0,15.351
			c-0.613,0-1.096,0-1.691,0c0-5.098,0-10.16,0-15.33c-0.9,0-1.695,0-2.564,0c0-0.566,0-1.021,0-1.635c0.822,0,1.643,0,2.449,0
			c0.115-1.317,0.104-2.505,0.338-3.638c0.601-2.882,3.004-3.51,5.201-3.197c0.307,0.044,0.514,0.788,0.873,1.384
			c-1.648,0.187-3.328-0.305-3.998,1.164C166.082,13.356,166.051,14.836,165.748,16.405z"/>
		<path fill-rule="evenodd" clip-rule="evenodd" fill="#3F5588" d="M176.785,32.296c0.141,1.373,0.051,1.473-1.217,1.479
			c-1.598,0.009-2.352-0.62-2.631-2.2c-0.053-0.289-0.117-0.582-0.119-0.873c-0.006-4.701-0.004-9.404-0.004-14.201
			c0.553,0,1.043,0,1.711,0c0,0.383,0,0.768,0,1.153c0,4.044-0.002,8.092,0,12.135C174.525,31.994,174.604,32.082,176.785,32.296z"
			/>
		<path fill-rule="evenodd" clip-rule="evenodd" fill="#3F5588" d="M134.838,9.398c1.35-0.021,2.396,0.998,2.41,2.34
			c0.01,1.353-1.006,2.385-2.354,2.388c-1.363,0.004-2.404-1.002-2.418-2.335C132.463,10.46,133.49,9.418,134.838,9.398z"/>
	</g>
	<path fill="#EF4258" d="M42.996,0H24.293c-0.848,0-1.537,0.684-1.537,1.534c0,0.848,0.689,1.535,1.537,1.535h6.824
		c-2.807,1.559-5.285,3.653-7.281,6.143H10.748c-0.85,0-1.533,0.688-1.533,1.534c0,0.849,0.684,1.536,1.533,1.536h10.984
		c-1.106,1.903-1.967,3.962-2.529,6.144H1.533C0.688,18.426,0,19.113,0,19.961c0,0.849,0.688,1.534,1.533,1.534h17.092
		c-0.129,1.008-0.199,2.032-0.199,3.072c0,1.039,0.07,2.065,0.199,3.071h-7.877c-0.85,0-1.533,0.688-1.533,1.534
		c0,0.848,0.684,1.536,1.533,1.536h8.455c0.563,2.182,1.424,4.239,2.529,6.144h-4.721c-0.85,0-1.537,0.688-1.537,1.534
		c0,0.85,0.688,1.534,1.537,1.534h6.824c1.996,2.492,4.475,4.584,7.281,6.143h-6.539c-0.854,0-1.539,0.688-1.539,1.537
		c0,0.85,0.686,1.536,1.539,1.536h18.223c0.014,0,0.029-0.005,0.041-0.005c0.049,0,0.1,0.005,0.154,0.005
		c13.547,0,24.568-11.023,24.568-24.569C67.564,11.019,56.543,0,42.996,0z M42.996,46.063c-5.842,0-11.141-2.348-15.018-6.143h5.035
		c0.846,0,1.535-0.685,1.535-1.534c0-0.847-0.689-1.534-1.535-1.534h-7.637c-1.299-1.858-2.31-3.922-2.976-6.144h19.443
		c0.844,0,1.535-0.688,1.535-1.536c0-0.847-0.691-1.534-1.535-1.534H21.742c-0.149-1.006-0.244-2.024-0.244-3.071
		c0-1.05,0.096-2.066,0.244-3.072h7.432c0.848,0,1.537-0.686,1.537-1.534c0-0.848-0.689-1.535-1.537-1.535H22.4
		c0.666-2.22,1.678-4.287,2.976-6.144H35.51c0.846,0,1.535-0.688,1.535-1.536c0-0.847-0.689-1.534-1.535-1.534h-7.531
		c3.877-3.793,9.176-6.143,15.018-6.143c11.854,0,21.498,9.644,21.498,21.498C64.494,36.421,54.85,46.063,42.996,46.063z"/>
	<path fill-rule="evenodd" clip-rule="evenodd" fill="#3F5588" d="M173.664,10.707c0.66-0.011,1.166,0.485,1.174,1.139
		c0.006,0.658-0.488,1.161-1.145,1.162c-0.662,0.003-1.172-0.486-1.18-1.138C172.506,11.224,173.008,10.715,173.664,10.707z"/>
</g>
</svg>
